<?xml version="1.0" encoding="UTF-8"?>
<svg version="1.1" xmlns="http://www.w3.org/2000/svg" width="500" height="500">
<path d="M0 0 C165 0 330 0 500 0 C500 165 500 330 500 500 C335 500 170 500 0 500 C0 335 0 170 0 0 Z " fill="#000000" transform="translate(0,0)"/>
<path d="M0 0 C5.28 0 10.56 0 16 0 C16.17015625 1.16015625 16.3403125 2.3203125 16.515625 3.515625 C21.03600348 33.18638268 35.84749484 59.00928006 57.76171875 79.66015625 C59 81 59 81 59 83 C59.58910156 83.26554687 60.17820312 83.53109375 60.78515625 83.8046875 C63.05812354 85.03136826 64.57793351 86.3441234 66.4375 88.125 C83.84138686 103.57375408 105.24157074 110.01903322 128 111 C128 116.61 128 122.22 128 128 C125.81375 128.2475 123.6275 128.495 121.375 128.75 C88.40401491 133.02128218 58.10488926 155.0273028 37.5703125 180.58203125 C24.18323467 197.95900304 18.21229869 217.17862351 17 239 C11.39 239 5.78 239 0 239 C-0.2475 236.793125 -0.495 234.58625 -0.75 232.3125 C-4.54540406 202.88371778 -23.10387626 178.90005659 -43 158 C-43.69867188 157.24847656 -44.39734375 156.49695313 -45.1171875 155.72265625 C-70.12113526 129.56390769 -110.36658264 130.03042647 -144 128 C-144 122.72 -144 117.44 -144 112 C-142.49695313 111.96261719 -140.99390625 111.92523438 -139.4453125 111.88671875 C-127.95437638 111.54617765 -116.55174115 110.91302373 -105.125 109.625 C-104.07586426 109.51115967 -103.02672852 109.39731934 -101.94580078 109.2800293 C-79.62532731 106.61317215 -60.53660991 96.92158085 -44 82 C-43.08992188 81.19949219 -42.17984375 80.39898437 -41.2421875 79.57421875 C-38.7995812 77.41172785 -36.39172668 75.21853268 -34 73 C-33.31421875 72.36835938 -32.6284375 71.73671875 -31.921875 71.0859375 C-11.23898072 51.29875912 -2.92480291 27.68300299 0 0 Z " fill="#FBFBFB" transform="translate(230,144)"/>
<path d="M0 0 C0.66 0 1.32 0 2 0 C2.34611328 1.41539062 2.34611328 1.41539062 2.69921875 2.859375 C9.3231597 29.26174643 24.37403457 52.899786 48.07299805 67.13818359 C57.83768819 72.82422048 67.62615173 76.98322015 78.69921875 79.32421875 C79.45847656 79.54722656 80.21773437 79.77023437 81 80 C81.33 80.66 81.66 81.32 82 82 C81.05640625 82.23074219 80.1128125 82.46148437 79.140625 82.69921875 C52.96193571 89.26704136 29.66161034 104.24142194 14.8125 127.1875 C8.55856094 137.77683905 4.55334592 148.97239683 2 161 C1.34 161 0.68 161 0 161 C-0.25652344 159.89785156 -0.51304687 158.79570312 -0.77734375 157.66015625 C-6.96214058 132.59222746 -21.77829296 109.52520403 -43.875 95.5625 C-55.87434297 88.31720707 -68.1906317 84.23300424 -82 82 C-79.33837373 80.22558249 -77.84770848 79.55464486 -74.859375 78.7734375 C-48.80304282 71.65991474 -25.86200313 56.99603682 -11.86328125 33.33984375 C-6.0370629 22.89662218 -1.77494777 11.87440058 0 0 Z " fill="#010101" transform="translate(237,183)"/>
</svg>
